<svg xmlns="http://www.w3.org/2000/svg" viewBox="0 0 64 80" x="0px" y="0px"><path d="M14.5,47a11.01245,11.01245,0,0,1-11-11,1,1,0,0,1,2,0,9.00984,9.00984,0,0,0,9,9,1,1,0,0,1,0,2Z"/><path d="M4.5,37a.99943.99943,0,0,1-1-1V11a1,1,0,0,1,2,0V36A.99943.99943,0,0,1,4.5,37Z"/><path d="M43.5,47a1,1,0,0,1,0-2,15.01641,15.01641,0,0,0,15-15,1,1,0,0,1,2,0A17.019,17.019,0,0,1,43.5,47Z"/><path d="M59.501,23a.99918.99918,0,0,1-.87207-.50977l-9-16a.99956.99956,0,1,1,1.74218-.98046l9,16A1.00027,1.00027,0,0,1,59.501,23Z"/><path d="M59.5,31a.99943.99943,0,0,1-1-1V22a1,1,0,0,1,2,0v8A.99943.99943,0,0,1,59.5,31Z"/><path d="M50.5,7h-7a1,1,0,0,1,0-2h7a1,1,0,0,1,0,2Z"/><path d="M33.5,47h-19a1,1,0,0,1,0-2h19a1,1,0,0,1,0,2Z"/><path d="M43.5,47h-5a1,1,0,0,1,0-2h5a1,1,0,0,1,0,2Z"/><path d="M7.5,12h-3a1,1,0,0,1,0-2h3a1,1,0,0,1,0,2Z"/><path d="M13.5,18a7.00849,7.00849,0,0,1-7-7,1,1,0,0,1,2,0,5.00588,5.00588,0,0,0,5,5,1,1,0,0,1,0,2Z"/><path d="M21.5,18h-8a1,1,0,0,1,0-2h8a1,1,0,0,1,0,2Z"/><path d="M7.5,12a.99943.99943,0,0,1-1-1V8a1,1,0,0,1,2,0v3A.99943.99943,0,0,1,7.5,12Z"/><path d="M21.5,34.042a.99942.99942,0,0,1-1-1V29a1,1,0,0,1,2,0v4.042A.99942.99942,0,0,1,21.5,34.042Z"/><path d="M21.5,15a.98329.98329,0,0,1-.39355-.081l-14-6a.99968.99968,0,1,1,.7871-1.8379l14,6A.99989.99989,0,0,1,21.5,15Z"/><path d="M7.499,9a.99975.99975,0,0,1-.98535-.83594l-1-6a.99988.99988,0,0,1,1.97266-.32812l1,6a1.00012,1.00012,0,0,1-.82227,1.15039A.94941.94941,0,0,1,7.499,9Z"/><path d="M6.5,3a1,1,0,0,1-.707-1.707l1-1A.99989.99989,0,1,1,8.207,1.707l-1,1A.99676.99676,0,0,1,6.5,3Z"/><path d="M22.499,10a1.00789,1.00789,0,0,1-.46972-.11719l-15-8A1.00046,1.00046,0,0,1,7.9707.11719l15,8A1.00013,1.00013,0,0,1,22.499,10Z"/><path d="M43.5,7a.99826.99826,0,0,1-.31641-.05176l-6-2a.99964.99964,0,1,1,.63282-1.89648l6,2A.99986.99986,0,0,1,43.5,7Z"/><path d="M29.5,10h-7a1,1,0,0,1,0-2h7a1,1,0,0,1,0,2Z"/><path d="M21.501,15a1,1,0,0,1-.53125-1.84766l16-10a.99986.99986,0,0,1,1.06054,1.69532l-16,10A.99338.99338,0,0,1,21.501,15Z"/><path d="M35.5,15a1,1,0,0,1,0-2,7.00848,7.00848,0,0,0,7-7,1,1,0,0,1,2,0A9.00984,9.00984,0,0,1,35.5,15Z"/><path d="M35.5,15h-14a1,1,0,0,1,0-2h14a1,1,0,0,1,0,2Z"/><path d="M36.59375,42a1,1,0,0,1,0-2,15.01641,15.01641,0,0,0,15-15,1,1,0,0,1,2,0A17.019,17.019,0,0,1,36.59375,42Z"/><path d="M52.59473,26a1,1,0,0,1-.90332-.56836l-9.09375-19a1.00027,1.00027,0,1,1,1.80468-.86328l9.09375,19A.99976.99976,0,0,1,52.59473,26Z"/><path d="M36.59375,42H29.5a1,1,0,0,1,0-2h7.09375a1,1,0,0,1,0,2Z"/><path d="M29.5,42a9.00984,9.00984,0,0,1-9-9,1,1,0,0,1,2,0,7.00849,7.00849,0,0,0,7,7,1,1,0,0,1,0,2Z"/><path d="M41.5,41.23438a.99943.99943,0,0,1-1-1V20a1,1,0,0,1,2,0V40.23438A.99943.99943,0,0,1,41.5,41.23438Z"/><path d="M41.5,21a.99943.99943,0,0,1-1-1,6.96326,6.96326,0,0,1,6.80273-6.998h.02832a1.00018,1.00018,0,0,1,.02637,2A4.97186,4.97186,0,0,0,42.5,20,.99943.99943,0,0,1,41.5,21Z"/><path d="M18.5,33a1,1,0,0,1-.72656-1.68652l17-18a.9996.9996,0,1,1,1.45312,1.373l-17,18A.9961.9961,0,0,1,18.5,33Z"/><path d="M15.92969,30.42969a1,1,0,0,1-.72754-1.68653L29.77246,13.31348a1.00031,1.00031,0,0,1,1.45508,1.373L16.65723,30.11621A.99985.99985,0,0,1,15.92969,30.42969Z"/><path d="M18.5,33a.99676.99676,0,0,1-.707-.293l-2.57031-2.57031a.99989.99989,0,0,1,1.41406-1.41406L19.207,31.293A1,1,0,0,1,18.5,33Z"/><path d="M21.5,24.53027a.99942.99942,0,0,1-1-1V14a1,1,0,0,1,2,0v9.53027A.99942.99942,0,0,1,21.5,24.53027Z"/><path d="M40.5,64h-9a.99943.99943,0,0,1-1-1V60a.99943.99943,0,0,1,1-1h9a.99943.99943,0,0,1,1,1v3A.99943.99943,0,0,1,40.5,64Zm-8-2h7V61h-7Z"/><path d="M40.5,57.5a.99943.99943,0,0,1-1-1,3.5,3.5,0,0,0-7,0,1,1,0,0,1-2,0,5.5,5.5,0,0,1,11,0A.99943.99943,0,0,1,40.5,57.5Z"/><path d="M40.5,61a.99943.99943,0,0,1-1-1V56.5a1,1,0,0,1,2,0V60A.99943.99943,0,0,1,40.5,61Z"/><path d="M31.5,61a.99943.99943,0,0,1-1-1V56.5a1,1,0,0,1,2,0V60A.99943.99943,0,0,1,31.5,61Z"/><path d="M34.5,53.25781a.99942.99942,0,0,1-1-1V41a1,1,0,0,1,2,0V52.25781A.99942.99942,0,0,1,34.5,53.25781Z"/><path d="M37.5,53.25781a.99942.99942,0,0,1-1-1V41a1,1,0,0,1,2,0V52.25781A.99942.99942,0,0,1,37.5,53.25781Z"/><text x="0" y="79" fill="#000000" font-size="5px" font-weight="bold" font-family="'Helvetica Neue', Helvetica, Arial-Unicode, Arial, Sans-serif">Created by lastspark</text><text x="0" y="84" fill="#000000" font-size="5px" font-weight="bold" font-family="'Helvetica Neue', Helvetica, Arial-Unicode, Arial, Sans-serif">from the Noun Project</text></svg>