<?xml version="1.0" encoding="UTF-8" standalone="no"?>
<svg
   viewBox="0 0 57 62.999882"
   x="0px"
   y="0px"
   version="1.1"
   id="svg200"
   sodipodi:docname="noun-saddle-5068594.svg"
   width="57"
   height="62.999882"
   xmlns:inkscape="http://www.inkscape.org/namespaces/inkscape"
   xmlns:sodipodi="http://sodipodi.sourceforge.net/DTD/sodipodi-0.dtd"
   xmlns="http://www.w3.org/2000/svg"
   xmlns:svg="http://www.w3.org/2000/svg">
  <defs
     id="defs204" />
  <sodipodi:namedview
     id="namedview202"
     pagecolor="#ffffff"
     bordercolor="#000000"
     borderopacity="0.25"
     inkscape:showpageshadow="2"
     inkscape:pageopacity="0.0"
     inkscape:pagecheckerboard="0"
     inkscape:deskcolor="#d1d1d1"
     showgrid="false" />
  <path
     d="m 11,45.999881 a 11.01245,11.01245 0 0 1 -10.99999983736457,-11 1,1 0 0 1 2.00000003736457,0 9.00984,9.00984 0 0 0 8.9999998,9 1,1 0 0 1 0,2 z"
     id="path120" />
  <path
     d="m 1.0000002,35.999881 a 0.99943,0.99943 0 0 1 -1.00000003736457,-1 V 9.9998813 a 1,1 0 0 1 2.00000003736457,0 V 34.999881 a 0.99943,0.99943 0 0 1 -1,1 z"
     id="path122" />
  <path
     d="m 40,45.999881 a 1,1 0 0 1 0,-2 15.01641,15.01641 0 0 0 15,-15 1,1 0 0 1 2,0 17.019,17.019 0 0 1 -17,17 z"
     id="path124" />
  <path
     d="m 56.001,21.999881 a 0.99918,0.99918 0 0 1 -0.87207,-0.50977 l -9,-15.9999997 a 0.99956152,0.99956152 0 1 1 1.74218,-0.98046 l 9,15.9999997 a 1.00027,1.00027 0 0 1 -0.87011,1.49023 z"
     id="path126" />
  <path
     d="m 56,29.999881 a 0.99943,0.99943 0 0 1 -1,-1 v -8 a 1,1 0 0 1 2,0 v 8 a 0.99943,0.99943 0 0 1 -1,1 z"
     id="path128" />
  <path
     d="m 47,5.9998813 h -7 a 1,1 0 0 1 0,-2 h 7 a 1,1 0 0 1 0,2 z"
     id="path130" />
  <path
     d="M 30,45.999881 H 11 a 1,1 0 0 1 0,-2 h 19 a 1,1 0 0 1 0,2 z"
     id="path132" />
  <path
     d="m 40,45.999881 h -5 a 1,1 0 0 1 0,-2 h 5 a 1,1 0 0 1 0,2 z"
     id="path134" />
  <path
     d="m 4.0000002,10.999881 h -3 a 1,1 0 0 1 0,-1.9999997 h 3 a 1,1 0 0 1 0,1.9999997 z"
     id="path136" />
  <path
     d="m 10,16.999881 a 7.00849,7.00849 0 0 1 -6.9999998,-6.9999997 1,1 0 0 1 2,0 A 5.00588,5.00588 0 0 0 10,14.999881 a 1,1 0 0 1 0,2 z"
     id="path138" />
  <path
     d="m 18,16.999881 h -8 a 1,1 0 0 1 0,-2 h 8 a 1,1 0 0 1 0,2 z"
     id="path140" />
  <path
     d="m 4.0000002,10.999881 a 0.99943,0.99943 0 0 1 -1,-0.9999997 v -3 a 1,1 0 0 1 2,0 v 3 a 0.99943,0.99943 0 0 1 -1,0.9999997 z"
     id="path142" />
  <path
     d="m 18,33.041881 a 0.99942,0.99942 0 0 1 -1,-1 v -4.042 a 1,1 0 0 1 2,0 v 4.042 a 0.99942,0.99942 0 0 1 -1,1 z"
     id="path144" />
  <path
     d="m 18,13.999881 a 0.98329,0.98329 0 0 1 -0.39355,-0.081 L 3.6064502,7.9188813 a 0.99968,0.99968 0 1 1 0.7871,-1.8379 L 18.39355,12.080981 A 0.99989,0.99989 0 0 1 18,13.999881 Z"
     id="path146" />
  <path
     d="m 3.9990002,7.9998813 a 0.99975,0.99975 0 0 1 -0.98535,-0.83594 l -1,-6 a 0.99988127,0.99988127 0 0 1 1.97266,-0.32812004 l 1,6.00000004 a 1.00012,1.00012 0 0 1 -0.82227,1.15039 0.94941,0.94941 0 0 1 -0.16504,0.01367 z"
     id="path148" />
  <path
     d="m 3.0000002,1.9998813 a 1,1 0 0 1 -0.707,-1.70700004 l 1,-1 a 0.99989,0.99989 0 1 1 1.414,1.414 l -1,1.00000004 a 0.99676,0.99676 0 0 1 -0.707,0.293 z"
     id="path150" />
  <path
     d="m 18.999,8.9998813 a 1.00789,1.00789 0 0 1 -0.46972,-0.11719 L 3.5292802,0.88269126 a 1.0004606,1.0004606 0 0 1 0.94142,-1.76562 L 19.4707,7.1170713 a 1.00013,1.00013 0 0 1 -0.4717,1.88281 z"
     id="path152" />
  <path
     d="m 40,5.9998813 a 0.99826,0.99826 0 0 1 -0.31641,-0.05176 l -6,-2 a 0.99964,0.99964 0 1 1 0.63282,-1.89648 l 6,2 A 0.99986,0.99986 0 0 1 40,5.9998813 Z"
     id="path154" />
  <path
     d="m 26,8.9998813 h -7 a 1,1 0 0 1 0,-2 h 7 a 1,1 0 0 1 0,2 z"
     id="path156" />
  <path
     d="m 18.001,13.999881 a 1,1 0 0 1 -0.53125,-1.84766 l 16,-9.9999997 a 0.99986,0.99986 0 0 1 1.06054,1.69532 l -16,9.9999997 a 0.99338,0.99338 0 0 1 -0.52929,0.15234 z"
     id="path158" />
  <path
     d="m 32,13.999881 a 1,1 0 0 1 0,-2 7.00848,7.00848 0 0 0 7,-6.9999997 1,1 0 0 1 2,0 9.00984,9.00984 0 0 1 -9,8.9999997 z"
     id="path160" />
  <path
     d="M 32,13.999881 H 18 a 1,1 0 0 1 0,-2 h 14 a 1,1 0 0 1 0,2 z"
     id="path162" />
  <path
     d="m 33.09375,40.999881 a 1,1 0 0 1 0,-2 15.01641,15.01641 0 0 0 15,-15 1,1 0 0 1 2,0 17.019,17.019 0 0 1 -17,17 z"
     id="path164" />
  <path
     d="m 49.09473,24.999881 a 1,1 0 0 1 -0.90332,-0.56836 L 39.09766,5.4315213 a 1.00027,1.00027 0 1 1 1.80468,-0.86328 l 9.09375,18.9999997 a 0.99976,0.99976 0 0 1 -0.90136,1.43164 z"
     id="path166" />
  <path
     d="M 33.09375,40.999881 H 26 a 1,1 0 0 1 0,-2 h 7.09375 a 1,1 0 0 1 0,2 z"
     id="path168" />
  <path
     d="m 26,40.999881 a 9.00984,9.00984 0 0 1 -9,-9 1,1 0 0 1 2,0 7.00849,7.00849 0 0 0 7,7 1,1 0 0 1 0,2 z"
     id="path170" />
  <path
     d="m 38,40.234261 a 0.99943,0.99943 0 0 1 -1,-1 v -20.23438 a 1,1 0 0 1 2,0 v 20.23438 a 0.99943,0.99943 0 0 1 -1,1 z"
     id="path172" />
  <path
     d="m 38,19.999881 a 0.99943,0.99943 0 0 1 -1,-1 6.96326,6.96326 0 0 1 6.80273,-6.998 h 0.02832 a 1.00018,1.00018 0 0 1 0.02637,2 4.97186,4.97186 0 0 0 -4.85742,4.998 0.99943,0.99943 0 0 1 -1,1 z"
     id="path174" />
  <path
     d="m 15,31.999881 a 1,1 0 0 1 -0.72656,-1.68652 l 17,-18 a 0.9996,0.9996 0 1 1 1.45312,1.373 l -17,18 A 0.9961,0.9961 0 0 1 15,31.999881 Z"
     id="path176" />
  <path
     d="m 12.42969,29.429571 a 1,1 0 0 1 -0.72754,-1.68653 l 14.57031,-15.42968 a 1.00031,1.00031 0 0 1 1.45508,1.373 l -14.57031,15.42973 a 0.99985,0.99985 0 0 1 -0.72754,0.31348 z"
     id="path178" />
  <path
     d="m 15,31.999881 a 0.99676,0.99676 0 0 1 -0.707,-0.293 l -2.57031,-2.57031 a 0.99989142,0.99989142 0 0 1 1.41406,-1.41406 l 2.57025,2.57037 a 1,1 0 0 1 -0.707,1.707 z"
     id="path180" />
  <path
     d="m 18,23.530151 a 0.99942,0.99942 0 0 1 -1,-1 v -9.53027 a 1,1 0 0 1 2,0 v 9.53027 a 0.99942,0.99942 0 0 1 -1,1 z"
     id="path182" />
  <path
     d="m 37,62.999881 h -9 a 0.99943,0.99943 0 0 1 -1,-1 v -3 a 0.99943,0.99943 0 0 1 1,-1 h 9 a 0.99943,0.99943 0 0 1 1,1 v 3 a 0.99943,0.99943 0 0 1 -1,1 z m -8,-2 h 7 v -1 h -7 z"
     id="path184" />
  <path
     d="m 37,56.499881 a 0.99943,0.99943 0 0 1 -1,-1 3.5,3.5 0 0 0 -7,0 1,1 0 0 1 -2,0 5.5,5.5 0 0 1 11,0 0.99943,0.99943 0 0 1 -1,1 z"
     id="path186" />
  <path
     d="m 37,59.999881 a 0.99943,0.99943 0 0 1 -1,-1 v -3.5 a 1,1 0 0 1 2,0 v 3.5 a 0.99943,0.99943 0 0 1 -1,1 z"
     id="path188" />
  <path
     d="m 28,59.999881 a 0.99943,0.99943 0 0 1 -1,-1 v -3.5 a 1,1 0 0 1 2,0 v 3.5 a 0.99943,0.99943 0 0 1 -1,1 z"
     id="path190" />
  <path
     d="m 31,52.257691 a 0.99942,0.99942 0 0 1 -1,-1 v -11.25781 a 1,1 0 0 1 2,0 v 11.25781 a 0.99942,0.99942 0 0 1 -1,1 z"
     id="path192" />
  <path
     d="m 34,52.257691 a 0.99942,0.99942 0 0 1 -1,-1 v -11.25781 a 1,1 0 0 1 2,0 v 11.25781 a 0.99942,0.99942 0 0 1 -1,1 z"
     id="path194" />
</svg>
